<?xml version="1.0" encoding="UTF-8" standalone="no"?>
<svg
   xmlns:dc="http://purl.org/dc/elements/1.1/"
   xmlns:cc="http://creativecommons.org/ns#"
   xmlns:rdf="http://www.w3.org/1999/02/22-rdf-syntax-ns#"
   xmlns:svg="http://www.w3.org/2000/svg"
   xmlns="http://www.w3.org/2000/svg"
   viewBox="0 0 450 630"
   height="7in"
   width="5in"
   xml:space="preserve"
   version="1.1"
   id="svg2"><metadata
     id="metadata8"><rdf:RDF><cc:Work
         rdf:about=""><dc:format>image/svg+xml</dc:format><dc:type
           rdf:resource="http://purl.org/dc/dcmitype/StillImage" /><dc:title></dc:title></cc:Work></rdf:RDF></metadata><defs
     id="defs6"><clipPath
       id="clipPath16"
       clipPathUnits="userSpaceOnUse"><path
         style="clip-rule:evenodd"
         id="path18"
         d="M 0,0 792,0 792,612 0,612 0,0 Z" /></clipPath></defs><g
     transform="matrix(1.25,0,0,-1.25,0,630)"
     id="g10"><g
       id="g12"><g
         clip-path="url(#clipPath16)"
         id="g14"><g
           transform="translate(-421.14915,-127.62034)"
           id="g22"><text
             id="text24"
             style="font-variant:normal;font-weight:normal;font-size:54px;font-family:Arial;-inkscape-font-specification:ArialMT;writing-mode:lr-tb;fill:#000000;fill-opacity:1;fill-rule:nonzero;stroke:none"
             transform="matrix(1,0,0,-1,434.4,528.3)"><tspan
               id="tspan26"
               y="0"
               x="0 30.024 42.012001 69.012001">Live</tspan></text>
</g><g
           transform="translate(-421.14915,-127.62034)"
           id="g28"><text
             id="text30"
             style="font-variant:normal;font-weight:normal;font-size:54px;font-family:Arial;-inkscape-font-specification:ArialMT;writing-mode:lr-tb;fill:#999999;fill-opacity:1;fill-rule:nonzero;stroke:none"
             transform="matrix(1,0,0,-1,431.9,530.8)"><tspan
               id="tspan32"
               y="0"
               x="0 30.024 42.012001 69.012001">Live</tspan></text>
</g><g
           transform="translate(-421.14915,-127.62034)"
           id="g34"><text
             id="text36"
             style="font-variant:normal;font-weight:bold;font-size:88px;font-family:Arial;-inkscape-font-specification:Arial-BoldMT;writing-mode:lr-tb;fill:#c0c0c0;fill-opacity:1;fill-rule:nonzero;stroke:none"
             transform="matrix(1,0,0,-1,459,438.4)"><tspan
               id="tspan38"
               y="0"
               x="0 63.535999 141.76801 195.448">Hmon</tspan></text>
</g><g
           transform="translate(-421.14915,-127.62034)"
           id="g40"><text
             id="text42"
             style="font-variant:normal;font-weight:bold;font-size:88px;font-family:Arial;-inkscape-font-specification:Arial-BoldMT;writing-mode:lr-tb;fill:#000000;fill-opacity:1;fill-rule:nonzero;stroke:none"
             transform="matrix(1,0,0,-1,455,442.4)"><tspan
               id="tspan44"
               y="0"
               x="0 63.535999 141.76801 195.448">Hmon</tspan></text>
</g><g
           transform="translate(-264.90762,-30.981355)"
           id="g46"><text
             id="text48"
             style="font-variant:normal;font-weight:bold;font-size:88px;font-family:Arial;-inkscape-font-specification:Arial-BoldMT;writing-mode:lr-tb;fill:#c0c0c0;fill-opacity:1;fill-rule:nonzero;stroke:none"
             transform="matrix(1,0,0,-1,556.8,340.1)"><tspan
               id="tspan50"
               y="0"
               x="0">g</tspan></text>
</g><g
           transform="translate(-265.55593,-31.022885)"
           id="g52"><text
             id="text54"
             style="font-variant:normal;font-weight:bold;font-size:88px;font-family:Arial;-inkscape-font-specification:Arial-BoldMT;writing-mode:lr-tb;fill:#000000;fill-opacity:1;fill-rule:nonzero;stroke:none"
             transform="matrix(1,0,0,-1,552.8,344.1)"><tspan
               id="tspan56"
               y="0"
               x="0">g</tspan></text>
</g><g
           transform="translate(-408.34915,-127.62034)"
           id="g88"><path
             id="path90"
             style="fill:none;stroke:#999999;stroke-width:8.63148975;stroke-linecap:butt;stroke-linejoin:round;stroke-miterlimit:10;stroke-dasharray:none;stroke-opacity:1"
             d="m 531.8,324.6 c -0.2,-23.6 -0.3,-42.2 -0.4,-57" /></g><g
           transform="translate(-408.34915,-127.62034)"
           id="g92"><path
             id="path94"
             style="fill:none;stroke:#999999;stroke-width:8.63148975;stroke-linecap:butt;stroke-linejoin:round;stroke-miterlimit:10;stroke-dasharray:none;stroke-opacity:1"
             d="m 531.4,261.4 c 0,-3.1 0,-5.9 0,-8.5" /></g><g
           transform="translate(-408.34915,-127.62034)"
           id="g96"><path
             id="path98"
             style="fill:none;stroke:#999999;stroke-width:8.63148975;stroke-linecap:butt;stroke-linejoin:round;stroke-miterlimit:10;stroke-dasharray:none;stroke-opacity:1"
             d="m 531.4,247.3 c 0,-3.2 0,-6.2 0,-8.8" /></g><g
           transform="translate(-408.34915,-127.62034)"
           id="g100"><path
             id="path102"
             style="fill:none;stroke:#999999;stroke-width:8.63148975;stroke-linecap:butt;stroke-linejoin:round;stroke-miterlimit:10;stroke-dasharray:none;stroke-opacity:1"
             d="m 531.4,232.9 c 0,-3.3 0,-6.1 0,-8.4" /></g><g
           transform="translate(-408.34915,-127.62034)"
           id="g104"><path
             id="path106"
             style="fill:none;stroke:#999999;stroke-width:8.63148975;stroke-linecap:butt;stroke-linejoin:round;stroke-miterlimit:10;stroke-dasharray:none;stroke-opacity:1"
             d="m 531.5,218.6 c 0.1,-7.6 0.3,-7.2 0.3,-7.2" /></g><g
           transform="translate(-408.34915,-127.62034)"
           id="g108"><path
             id="path110"
             style="fill:none;stroke:#999999;stroke-width:8.63148975;stroke-linecap:butt;stroke-linejoin:round;stroke-miterlimit:10;stroke-dasharray:none;stroke-opacity:1"
             d="m 531.8,211.4 c 0,0 -0.4,-23.4 36.3,-23.4" /></g><g
           transform="translate(-408.34915,-127.62034)"
           id="g112"><path
             id="path114"
             style="fill:none;stroke:#999999;stroke-width:8.63148975;stroke-linecap:butt;stroke-linejoin:round;stroke-miterlimit:10;stroke-dasharray:none;stroke-opacity:1"
             d="m 568.1,188 c 36.7,0 34.8,28.9 34.8,28.9" /></g><g
           transform="translate(-408.34915,-127.62034)"
           id="g116"><path
             id="path118"
             style="fill:none;stroke:#999999;stroke-width:8.63148975;stroke-linecap:butt;stroke-linejoin:round;stroke-miterlimit:10;stroke-dasharray:none;stroke-opacity:1"
             d="m 602.9,216.9 1.3,56.9" /></g><g
           transform="translate(-408.34915,-127.62034)"
           id="g120"><path
             id="path122"
             style="fill:none;stroke:#999999;stroke-width:8.63148975;stroke-linecap:butt;stroke-linejoin:round;stroke-miterlimit:10;stroke-dasharray:none;stroke-opacity:1"
             d="m 604.3,278.1 0,0.7" /></g><g
           transform="translate(-408.34915,-127.62034)"
           id="g124"><path
             id="path126"
             style="fill:none;stroke:#999999;stroke-width:8.63148975;stroke-linecap:butt;stroke-linejoin:round;stroke-miterlimit:10;stroke-dasharray:none;stroke-opacity:1"
             d="m 605.1,277.3 c 0,0 8.4,29.6 -16.6,32.3" /></g><g
           transform="translate(-408.34915,-127.62034)"
           id="g128"><path
             id="path130"
             style="fill:none;stroke:#999999;stroke-width:8.63148975;stroke-linecap:butt;stroke-linejoin:round;stroke-miterlimit:10;stroke-dasharray:none;stroke-opacity:1"
             d="m 588.5,309.6 c -25.1,2.7 -21.1,-21.5 -24.7,-25.1" /></g><g
           transform="translate(-408.34915,-127.62034)"
           id="g132"><path
             id="path134"
             style="fill:none;stroke:#999999;stroke-width:8.63148975;stroke-linecap:butt;stroke-linejoin:round;stroke-miterlimit:10;stroke-dasharray:none;stroke-opacity:1"
             d="m 563.8,288.1 c 9.4,-8 11.6,-17.4 46.9,-13.4" /></g><g
           transform="translate(-408.34915,-127.62034)"
           id="g136"><path
             id="path138"
             style="fill:none;stroke:#999999;stroke-width:8.63148975;stroke-linecap:butt;stroke-linejoin:round;stroke-miterlimit:10;stroke-dasharray:none;stroke-opacity:1"
             d="m 610.7,274.7 c 35.3,3.9 39.5,-1.3 39.5,-1.3" /></g><g
           transform="translate(-408.34915,-127.62034)"
           id="g140"><path
             id="path142"
             style="fill:none;stroke:#999999;stroke-width:8.63148975;stroke-linecap:butt;stroke-linejoin:round;stroke-miterlimit:10;stroke-dasharray:none;stroke-opacity:1"
             d="m 650.2,273.4 -1.4,36.2" /></g><g
           transform="translate(-408.34915,-127.62034)"
           id="g144"><path
             id="path146"
             style="fill:none;stroke:#999999;stroke-width:8.63148975;stroke-linecap:butt;stroke-linejoin:round;stroke-miterlimit:10;stroke-dasharray:none;stroke-opacity:1"
             d="m 650.2,273.7 -1.8,-56.8" /></g><g
           transform="translate(-408.34915,-127.62034)"
           id="g148"><path
             id="path150"
             style="fill:none;stroke:#999999;stroke-width:8.63148975;stroke-linecap:butt;stroke-linejoin:round;stroke-miterlimit:10;stroke-dasharray:none;stroke-opacity:1"
             d="m 648.2,212.5 -0.3,-8.6" /></g><g
           transform="translate(-408.34915,-127.62034)"
           id="g152"><path
             id="path154"
             style="fill:none;stroke:#999999;stroke-width:8.63148975;stroke-linecap:butt;stroke-linejoin:round;stroke-miterlimit:10;stroke-dasharray:none;stroke-opacity:1"
             d="M 647.8,199.6 647.5,191" /></g><g
           transform="translate(-408.34915,-127.62034)"
           id="g156"><path
             id="path158"
             style="fill:none;stroke:#999999;stroke-width:8.63148975;stroke-linecap:butt;stroke-linejoin:round;stroke-miterlimit:10;stroke-dasharray:none;stroke-opacity:1"
             d="m 646.7,185.8 -5.2,1.4" /></g><g
           transform="translate(-408.34915,-127.62034)"
           id="g160"><path
             id="path162"
             style="fill:none;stroke:#999999;stroke-width:5.74489021;stroke-linecap:butt;stroke-linejoin:round;stroke-miterlimit:10;stroke-dasharray:none;stroke-opacity:1"
             d="m 591.7,346 c -2.7,0 -5,1 -7.3,3.1 -2.3,2 -4,4.6 -5.3,8.2 -1.3,3.7 -2,7.2 -2,11.3 0,4.2 0.7,7.8 2,11.4 1.3,3.6 3,6.2 5.3,8.3 1.7,1.4 3.3,2.3 5,2.7" /></g><g
           transform="translate(-408.34915,-127.62034)"
           id="g164"><path
             id="path166"
             style="fill:none;stroke:#999999;stroke-width:5.74489021;stroke-linecap:butt;stroke-linejoin:round;stroke-miterlimit:10;stroke-dasharray:none;stroke-opacity:1"
             d="m 593.7,391.1 c 1.8,-0.3 3.4,-1.2 5.1,-2.6" /></g><g
           transform="translate(-408.34915,-127.62034)"
           id="g168"><path
             id="path170"
             style="fill:none;stroke:#999999;stroke-width:5.74489021;stroke-linecap:butt;stroke-linejoin:round;stroke-miterlimit:10;stroke-dasharray:none;stroke-opacity:1"
             d="m 601.7,385.3 c 0.9,-1.5 1.8,-3.1 2.6,-5.1" /></g><g
           transform="translate(-408.34915,-127.62034)"
           id="g172"><path
             id="path174"
             style="fill:none;stroke:#999999;stroke-width:5.74489021;stroke-linecap:butt;stroke-linejoin:round;stroke-miterlimit:10;stroke-dasharray:none;stroke-opacity:1"
             d="m 605.5,376.1 c 0.4,-1.8 0.7,-3.7 0.8,-5.7" /></g><g
           transform="translate(-408.34915,-127.62034)"
           id="g176"><path
             id="path178"
             style="fill:none;stroke:#999999;stroke-width:5.74489021;stroke-linecap:butt;stroke-linejoin:round;stroke-miterlimit:10;stroke-dasharray:none;stroke-opacity:1"
             d="m 606.2,366.1 c -0.1,-2 -0.4,-3.9 -0.9,-5.7" /></g><g
           transform="translate(-408.34915,-127.62034)"
           id="g180"><path
             id="path182"
             style="fill:none;stroke:#999999;stroke-width:5.74489021;stroke-linecap:butt;stroke-linejoin:round;stroke-miterlimit:10;stroke-dasharray:none;stroke-opacity:1"
             d="m 603.9,356.3 c -0.8,-1.9 -1.7,-3.6 -2.8,-5" /></g><g
           transform="translate(-408.34915,-127.62034)"
           id="g184"><path
             id="path186"
             style="fill:none;stroke:#999999;stroke-width:5.74489021;stroke-linecap:butt;stroke-linejoin:round;stroke-miterlimit:10;stroke-dasharray:none;stroke-opacity:1"
             d="m 598.1,348.3 c -1.7,-1.3 -3.4,-2 -5.3,-2.2" /></g><g
           transform="translate(-408.34915,-127.62034)"
           id="g188"><path
             id="path190"
             style="fill:none;stroke:#000000;stroke-width:8.63148975;stroke-linecap:butt;stroke-linejoin:round;stroke-miterlimit:10;stroke-dasharray:none;stroke-opacity:1"
             d="m 527.6,327.4 c -0.2,-23.6 -0.3,-42.2 -0.4,-57" /></g><g
           transform="translate(-408.34915,-127.62034)"
           id="g192"><path
             id="path194"
             style="fill:none;stroke:#000000;stroke-width:8.63148975;stroke-linecap:butt;stroke-linejoin:round;stroke-miterlimit:10;stroke-dasharray:none;stroke-opacity:1"
             d="m 527.2,264.1 c 0,-3 0,-5.8 0,-8.5" /></g><g
           transform="translate(-408.34915,-127.62034)"
           id="g196"><path
             id="path198"
             style="fill:none;stroke:#000000;stroke-width:8.63148975;stroke-linecap:butt;stroke-linejoin:round;stroke-miterlimit:10;stroke-dasharray:none;stroke-opacity:1"
             d="m 527.2,250.1 c 0,-3.2 0,-6.2 0,-8.9" /></g><g
           transform="translate(-408.34915,-127.62034)"
           id="g200"><path
             id="path202"
             style="fill:none;stroke:#000000;stroke-width:8.63148975;stroke-linecap:butt;stroke-linejoin:round;stroke-miterlimit:10;stroke-dasharray:none;stroke-opacity:1"
             d="m 527.2,235.7 c 0,-3.3 0,-6.1 0,-8.4" /></g><g
           transform="translate(-408.34915,-127.62034)"
           id="g204"><path
             id="path206"
             style="fill:none;stroke:#000000;stroke-width:8.63148975;stroke-linecap:butt;stroke-linejoin:round;stroke-miterlimit:10;stroke-dasharray:none;stroke-opacity:1"
             d="m 527.3,221.4 c 0.1,-7.7 0.3,-7.2 0.3,-7.2" /></g><g
           transform="translate(-408.34915,-127.62034)"
           id="g208"><path
             id="path210"
             style="fill:none;stroke:#000000;stroke-width:8.63148975;stroke-linecap:butt;stroke-linejoin:round;stroke-miterlimit:10;stroke-dasharray:none;stroke-opacity:1"
             d="m 527.6,214.2 c 0,0 -0.4,-23.4 36.3,-23.4" /></g><g
           transform="translate(-408.34915,-127.62034)"
           id="g212"><path
             id="path214"
             style="fill:none;stroke:#000000;stroke-width:8.63148975;stroke-linecap:butt;stroke-linejoin:round;stroke-miterlimit:10;stroke-dasharray:none;stroke-opacity:1"
             d="m 563.9,190.8 c 36.7,0 34.8,28.9 34.8,28.9" /></g><g
           transform="translate(-408.34915,-127.62034)"
           id="g216"><path
             id="path218"
             style="fill:none;stroke:#000000;stroke-width:8.63148975;stroke-linecap:butt;stroke-linejoin:round;stroke-miterlimit:10;stroke-dasharray:none;stroke-opacity:1"
             d="m 598.7,219.7 1.1,56.9" /></g><g
           transform="translate(-408.34915,-127.62034)"
           id="g220"><path
             id="path222"
             style="fill:none;stroke:#000000;stroke-width:8.63148975;stroke-linecap:butt;stroke-linejoin:round;stroke-miterlimit:10;stroke-dasharray:none;stroke-opacity:1"
             d="m 599.9,277.2 c 0,0 9.4,32.5 -15.6,35.2" /></g><g
           transform="translate(-408.34915,-127.62034)"
           id="g224"><path
             id="path226"
             style="fill:none;stroke:#000000;stroke-width:8.63148975;stroke-linecap:butt;stroke-linejoin:round;stroke-miterlimit:10;stroke-dasharray:none;stroke-opacity:1"
             d="m 584.3,312.4 c -25.1,2.7 -21.1,-21.5 -24.7,-25.1" /></g><g
           transform="translate(-408.34915,-127.62034)"
           id="g228"><path
             id="path230"
             style="fill:none;stroke:#000000;stroke-width:8.63148975;stroke-linecap:butt;stroke-linejoin:round;stroke-miterlimit:10;stroke-dasharray:none;stroke-opacity:1"
             d="m 560.3,291.6 c 3.6,-10.8 10.9,-18.1 46.2,-14.1" /></g><g
           transform="translate(-408.34915,-127.62034)"
           id="g232"><path
             id="path234"
             style="fill:none;stroke:#000000;stroke-width:8.63148975;stroke-linecap:butt;stroke-linejoin:round;stroke-miterlimit:10;stroke-dasharray:none;stroke-opacity:1"
             d="m 606.5,277.5 c 35.3,3.9 39.5,-1.3 39.5,-1.3" /></g><g
           transform="translate(-408.34915,-127.62034)"
           id="g236"><path
             id="path238"
             style="fill:none;stroke:#000000;stroke-width:8.63148975;stroke-linecap:butt;stroke-linejoin:round;stroke-miterlimit:10;stroke-dasharray:none;stroke-opacity:1"
             d="m 646,276.2 -1.4,36.2" /></g><g
           transform="translate(-408.34915,-127.62034)"
           id="g240"><path
             id="path242"
             style="fill:none;stroke:#000000;stroke-width:8.63148975;stroke-linecap:butt;stroke-linejoin:round;stroke-miterlimit:10;stroke-dasharray:none;stroke-opacity:1"
             d="m 646,276.5 -1.8,-56.9" /></g><g
           transform="translate(-408.34915,-127.62034)"
           id="g244"><path
             id="path246"
             style="fill:none;stroke:#000000;stroke-width:8.63148975;stroke-linecap:butt;stroke-linejoin:round;stroke-miterlimit:10;stroke-dasharray:none;stroke-opacity:1"
             d="m 644,215.3 -0.3,-8.6" /></g><g
           transform="translate(-408.34915,-127.62034)"
           id="g248"><path
             id="path250"
             style="fill:none;stroke:#000000;stroke-width:8.63148975;stroke-linecap:butt;stroke-linejoin:round;stroke-miterlimit:10;stroke-dasharray:none;stroke-opacity:1"
             d="m 643.6,202.4 -0.3,-8.7" /></g><g
           transform="translate(-408.34915,-127.62034)"
           id="g252"><path
             id="path254"
             style="fill:none;stroke:#000000;stroke-width:8.63148975;stroke-linecap:butt;stroke-linejoin:round;stroke-miterlimit:10;stroke-dasharray:none;stroke-opacity:1"
             d="m 643.1,186.5 -5.1,4.3" /></g><g
           transform="translate(-408.34915,-127.62034)"
           id="g256"><path
             id="path258"
             style="fill:none;stroke:#000000;stroke-width:5.74489021;stroke-linecap:butt;stroke-linejoin:round;stroke-miterlimit:10;stroke-dasharray:none;stroke-opacity:1"
             d="m 587.5,348.8 c -2.7,0 -5,0.9 -7.3,3 -2.3,2.1 -4,4.7 -5.3,8.3 -1.3,3.6 -2,7.2 -2,11.3 0,4.2 0.7,7.7 2,11.4 1.3,3.6 3,6.2 5.3,8.2 1.7,1.5 3.3,2.4 5,2.8" /></g><g
           transform="translate(-408.34915,-127.62034)"
           id="g260"><path
             id="path262"
             style="fill:none;stroke:#000000;stroke-width:5.74489021;stroke-linecap:butt;stroke-linejoin:round;stroke-miterlimit:10;stroke-dasharray:none;stroke-opacity:1"
             d="m 589.5,393.9 c 1.8,-0.4 3.4,-1.2 5.1,-2.6" /></g><g
           transform="translate(-408.34915,-127.62034)"
           id="g264"><path
             id="path266"
             style="fill:none;stroke:#000000;stroke-width:5.74489021;stroke-linecap:butt;stroke-linejoin:round;stroke-miterlimit:10;stroke-dasharray:none;stroke-opacity:1"
             d="m 597.5,388.1 c 1,-1.5 1.8,-3.2 2.6,-5.1" /></g><g
           transform="translate(-408.34915,-127.62034)"
           id="g268"><path
             id="path270"
             style="fill:none;stroke:#000000;stroke-width:5.74489021;stroke-linecap:butt;stroke-linejoin:round;stroke-miterlimit:10;stroke-dasharray:none;stroke-opacity:1"
             d="m 601.3,378.9 c 0.4,-1.9 0.7,-3.7 0.8,-5.7" /></g><g
           transform="translate(-408.34915,-127.62034)"
           id="g272"><path
             id="path274"
             style="fill:none;stroke:#000000;stroke-width:5.74489021;stroke-linecap:butt;stroke-linejoin:round;stroke-miterlimit:10;stroke-dasharray:none;stroke-opacity:1"
             d="m 602,368.8 c -0.1,-1.9 -0.4,-3.8 -0.9,-5.6" /></g><g
           transform="translate(-408.34915,-127.62034)"
           id="g276"><path
             id="path278"
             style="fill:none;stroke:#000000;stroke-width:5.74489021;stroke-linecap:butt;stroke-linejoin:round;stroke-miterlimit:10;stroke-dasharray:none;stroke-opacity:1"
             d="m 599.8,359.1 c -0.9,-2 -1.8,-3.6 -2.9,-5" /></g><g
           transform="translate(-408.34915,-127.62034)"
           id="g280"><path
             id="path282"
             style="fill:none;stroke:#000000;stroke-width:5.74489021;stroke-linecap:butt;stroke-linejoin:round;stroke-miterlimit:10;stroke-dasharray:none;stroke-opacity:1"
             d="m 593.9,351 c -1.7,-1.2 -3.4,-1.9 -5.3,-2.1" /></g></g></g></g></svg>